<?xml version="1.0" encoding="utf-8"?>
<svg
    version="1.1"
    id="TURN IT TO 11"
    xmlns="http://www.w3.org/2000/svg"
    xmlns:xlink="http://www.w3.org/1999/xlink"
    x="0px"
    y="0px"
    viewBox="0 0 405.5 112.76"
    xml:space="preserve"
>
<g>
    <path d="M37.19,26.61v66.16h-7.22V26.61H16V20h35.16v6.61H37.19z"/>
    <path d="M64.59,52.97c1.96,2.28,4.61,3.43,7.95,3.43c3.34,0,6-1.14,7.95-3.43c1.96-2.28,2.94-5.38,2.94-9.3V20h7.22v23.98
        c0,6.16-1.69,10.9-5.08,14.22c-3.39,3.32-7.73,4.99-13.03,4.99c-5.3,0-9.65-1.66-13.03-4.99c-3.39-3.32-5.08-8.07-5.08-14.22V20
        h7.22v23.68C61.66,47.59,62.64,50.69,64.59,52.97z"/>
    <path d="M127.11,33.89c0,7.06-3.08,11.5-9.24,13.34l11.2,15.54h-9.18l-10.22-14.38h-7.48v14.38h-7.22V20h13.91
        c6.52,0,11.2,1.1,14.01,3.3C125.7,25.5,127.11,29.03,127.11,33.89z M117.5,39.94c1.47-1.26,2.2-3.29,2.2-6.09
        c0-2.79-0.76-4.71-2.26-5.75c-1.51-1.04-4.2-1.56-8.08-1.56h-7.18v15.29h6.99C113.26,41.84,116.04,41.21,117.5,39.94z"/>
    <path d="M164.57,20h7.22v42.76h-7.83l-24.23-31.2v31.2h-7.22V20h7.22l24.84,31.94V20z"/>
    <path d="M195.42,20h7.22v42.76h-7.22V20z"/>
    <path d="M226.66,26.61v36.16h-7.22V26.61h-12.97V20h33.16v6.61H226.66z"/>
    <path d="M275.37,26.61v36.16h-7.22V26.61h-12.97V20h33.16v6.61H275.37z"/>
    <path d="M325.8,56.86c-4.32,4.22-9.67,6.33-16.03,6.33c-6.36,0-11.71-2.11-16.03-6.33c-4.32-4.22-6.48-9.48-6.48-15.78
        c0-6.3,2.16-11.56,6.48-15.78s9.67-6.33,16.03-6.33c6.36,0,11.71,2.11,16.03,6.33c4.32,4.22,6.49,9.48,6.49,15.78
        C332.28,47.38,330.12,52.64,325.8,56.86z M320.5,30.09c-2.92-3.02-6.5-4.53-10.74-4.53c-4.24,0-7.82,1.51-10.74,4.53
        c-2.92,3.02-4.37,6.68-4.37,10.98c0,4.3,1.46,7.96,4.37,10.98c2.92,3.02,6.49,4.53,10.74,4.53c4.24,0,7.82-1.51,10.74-4.53
        c2.92-3.02,4.37-6.68,4.37-10.98C324.88,36.77,323.42,33.11,320.5,30.09z"/>
    <path d="M343.9,20h15.54v72.76h-6.85V26.42h-8.69V20z"/>
    <path d="M367.21,20h15.54v72.76h-6.85V26.42h-8.69V20z"/>
</g>
<path d="M15.6,67.58h382.9v6.85H15.6"/>
</svg>
